<?xml version="1.0" standalone="no"?>
<!DOCTYPE svg PUBLIC "-//W3C//DTD SVG 20010904//EN"
 "http://www.w3.org/TR/2001/REC-SVG-20010904/DTD/svg10.dtd">
<svg version="1.0" xmlns="http://www.w3.org/2000/svg"
 width="1000.000000pt" height="1000.000000pt" viewBox="0 0 1000.000000 1000.000000"
 preserveAspectRatio="xMidYMid meet">
<metadata>
Created by potrace 1.14, written by Peter Selinger 2001-2017
</metadata>
<g transform="translate(0.000000,1000.000000) scale(0.100000,-0.100000)"
fill="#000000" stroke="none">
<path d="M4706 9990 c-1109 -70 -2136 -489 -2986 -1219 -140 -120 -425 -409
-539 -546 -1083 -1300 -1445 -3006 -981 -4616 329 -1140 1071 -2143 2065
-2791 1445 -942 3257 -1076 4829 -356 544 249 1037 598 1471 1040 185 188 284
302 435 503 771 1025 1120 2339 959 3610 -123 971 -508 1851 -1140 2610 -114
137 -399 426 -539 546 -821 705 -1774 1109 -2855 1209 -158 15 -556 20 -719
10z m674 -465 c91 -8 212 -21 270 -30 1959 -288 3500 -1795 3829 -3745 46
-268 55 -401 55 -750 0 -350 -9 -481 -56 -755 -233 -1384 -1092 -2579 -2333
-3248 -506 -273 -1050 -441 -1660 -514 -210 -25 -758 -25 -964 0 -727 87
-1346 302 -1941 675 -542 340 -1022 811 -1376 1349 -810 1232 -970 2788 -427
4163 411 1040 1188 1887 2193 2391 516 258 1053 411 1635 464 195 18 576 18
775 0z"/>
<path d="M2303 7914 c-444 -373 -822 -689 -840 -704 l-31 -28 251 -298 c139
-165 258 -299 265 -299 7 0 379 308 828 684 785 659 814 684 798 702 -16 18
-16 20 1 33 12 9 15 17 9 27 -12 21 -464 559 -468 559 -2 0 -368 -304 -813
-676z"/>
<path d="M6643 8308 c-131 -155 -246 -292 -255 -304 -18 -22 -13 -26 810 -715
455 -382 834 -699 843 -706 13 -10 54 34 272 292 l256 304 -832 699 c-458 384
-837 701 -844 705 -7 5 -97 -94 -250 -275z"/>
<path d="M4680 7809 c-907 -93 -1733 -569 -2272 -1309 -535 -736 -728 -1679
-528 -2582 187 -839 732 -1590 1476 -2036 376 -224 779 -365 1229 -429 183
-25 656 -26 830 0 369 55 657 141 965 288 352 169 635 373 911 656 503 516
798 1141 890 1888 19 150 16 562 -5 720 -86 654 -332 1216 -747 1700 -107 125
-314 325 -438 424 -477 379 -1044 611 -1651 676 -148 16 -519 18 -660 4z m645
-805 c906 -124 1669 -759 1953 -1626 164 -499 164 -1006 1 -1504 -114 -345
-297 -648 -554 -913 -280 -288 -595 -488 -960 -610 -265 -88 -483 -123 -765
-123 -102 0 -225 5 -275 11 -539 69 -1006 292 -1387 660 -218 211 -352 393
-487 661 -85 171 -165 397 -200 568 -74 359 -65 752 24 1097 282 1083 1279
1834 2390 1799 83 -3 200 -12 260 -20z"/>
<path d="M5350 5025 l-865 -865 -372 372 -373 373 -215 -215 c-118 -118 -215
-219 -215 -225 0 -6 264 -274 588 -598 l587 -587 1085 1085 1085 1085 -220
220 -220 220 -865 -865z"/>
</g>
</svg>
